<?xml version="1.0" standalone="no"?><!DOCTYPE svg PUBLIC "-//W3C//DTD SVG 1.1//EN" "http://www.w3.org/Graphics/SVG/1.1/DTD/svg11.dtd"><svg t="1668155469561" class="icon" viewBox="0 0 1024 1024" version="1.1" xmlns="http://www.w3.org/2000/svg" p-id="21403" xmlns:xlink="http://www.w3.org/1999/xlink" width="200" height="200"><path d="M481.4336 892.3648c-189.2352 0-342.6304-153.3952-342.6304-342.6304V394.3936h685.2608v155.3408c0 189.2352-153.3952 342.6304-342.6304 342.6304z" fill="#FFC31A" p-id="21404"></path><path d="M824.064 390.2976h-85.8624v161.024c0 47.36-12.9024 324.2496-305.1008 337.5616 15.8208 2.2528 31.9488 3.4816 48.3328 3.4816 189.2352 0 342.6304-153.3952 342.6304-342.6304V390.2976z" fill="#F48806" p-id="21405"></path><path d="M744.192 395.4176H107.9296c8.0384 7.5264 15.616 15.5136 20.0704 22.6304 28.8256 45.7728 81.9712 70.2464 150.9376 50.9952 27.0336-7.5264 52.992-9.6768 75.776-8.96 15.1552 0.4608 27.2384 12.6976 27.2384 27.8528v18.0736c0 19.968 15.4112 37.376 35.328 37.9904 20.6336 0.6144 37.5808-15.9232 37.5808-36.4544 0-13.5168 11.52-24.2176 25.0368-23.0912 1.8432 0.1536 3.7376 0.256 5.5808 0.4096 12.3392 0.768 21.9648 10.8032 21.9648 23.1424v62.1568c0 19.968 15.4112 37.376 35.328 37.9904 20.6336 0.6144 37.5808-15.9232 37.5808-36.4544V500.7872c0-12.8 8.6016-23.9104 20.8896-27.4432 9.8816-2.816 18.176-6.0416 24.2176-9.5232 74.9056-42.9056 85.3504-67.072 118.7328-68.4032z" fill="#FFE8D2" p-id="21406"></path><path d="M744.192 395.4176h-90.7264l-1.4848 1.2288s-43.7248 36.9152-76.4928 43.7248-32.0512 53.9136-32.0512 61.7984v61.44c0 7.168-7.936 22.9888-26.0096 11.3152l13.6704 30.72c3.6864 1.4336 7.6288 2.3552 11.776 2.4576 20.6336 0.6144 37.5808-15.9232 37.5808-36.4544V500.7872c0-12.8 8.6016-23.9104 20.8896-27.4432 9.8816-2.816 18.176-6.0416 24.2176-9.5232 74.8032-42.9056 85.248-67.072 118.6304-68.4032z" fill="#E8AD80" p-id="21407"></path><path d="M249.7024 718.0288c-4.7104 0-9.4208-1.5872-13.2608-4.864-2.816-2.4064-5.5296-4.7616-8.1408-7.168a20.48 20.48 0 0 1 27.648-30.208c2.2528 2.048 4.608 4.1472 7.0144 6.1952a20.51072 20.51072 0 0 1 2.3552 28.8768c-4.0448 4.7104-9.8304 7.168-15.616 7.168zM203.52 666.3168c-6.656 0-13.2096-3.2256-17.152-9.216-45.9776-69.888-36.608-134.7072-36.1984-137.4208a20.45952 20.45952 0 1 1 40.448 6.1952c-0.1536 1.0752-6.8096 52.9408 29.9008 108.7488 6.1952 9.472 3.584 22.1696-5.8368 28.3648-3.3792 2.2528-7.3216 3.328-11.1616 3.328z" fill="#FFFFFF" p-id="21408"></path><path d="M119.5008 631.296c-1.2288-3.6864-2.3552-7.3728-3.4304-11.1104a20.5056 20.5056 0 0 0-25.344-14.0288 20.5056 20.5056 0 0 0-14.0288 25.344c1.2288 4.1984 2.5088 8.3968 3.8912 12.544a20.50048 20.50048 0 0 0 25.856 13.056 20.43904 20.43904 0 0 0 13.056-25.8048zM309.3504 228.8128c-16.896 14.7456-40.0896 34.9696-34.2528 75.2128a20.51584 20.51584 0 0 0 23.1936 17.3568c11.2128-1.6384 18.944-12.032 17.3056-23.1936-2.56-17.4592 4.096-24.0128 20.6336-38.4512 11.9296-10.4448 26.7776-23.3984 34.7648-44.2368 17.152-44.9024-27.1872-80.896-56.1152-95.0272a20.43392 20.43392 0 0 0-27.3408 9.3696 20.46976 20.46976 0 0 0 9.2672 27.392c9.3184 4.6592 42.8032 25.6512 35.8912 43.6736-4.2496 11.264-13.1072 18.9952-23.3472 27.904zM423.7824 228.8128c-16.896 14.7456-40.0896 34.9696-34.2528 75.2128a20.51584 20.51584 0 0 0 23.1936 17.3568c11.2128-1.6384 18.944-12.032 17.3056-23.1936-2.56-17.4592 4.096-24.0128 20.6336-38.4512 11.9296-10.4448 26.8288-23.3984 34.7648-44.2368 17.2032-44.9024-27.1872-80.896-56.1152-95.0272a20.43392 20.43392 0 0 0-27.3408 9.3696 20.46976 20.46976 0 0 0 9.2672 27.392c9.3184 4.6592 42.8032 25.6512 35.8912 43.6736-4.2496 11.264-13.1072 18.9952-23.3472 27.904zM539.136 228.8128c-16.896 14.7456-40.0896 34.9696-34.2528 75.2128a20.51584 20.51584 0 0 0 23.1936 17.3568c11.2128-1.6384 18.944-12.032 17.3056-23.1936-2.56-17.4592 4.096-24.0128 20.6336-38.4512 11.9296-10.4448 26.8288-23.3984 34.7648-44.2368 17.2032-44.9024-27.1872-80.896-56.1152-95.0272a20.43392 20.43392 0 0 0-27.3408 9.3696 20.46976 20.46976 0 0 0 9.2672 27.392c9.3184 4.6592 42.8032 25.6512 35.8912 43.6736-4.2496 11.264-13.1072 18.9952-23.3472 27.904z" fill="#293E40" p-id="21409"></path><path d="M836.2496 394.3936c-16.4352 0-32.4096 3.0208-47.5136 8.6528v-5.3248c0-25.856-21.0432-46.8992-46.8992-46.8992H103.6288c-3.84 0-7.424 1.1264-10.5472 2.9696-17.8176 6.656-30.5664 23.808-30.5664 43.8784v133.0176c0 12.9536 0.6656 26.0096 2.048 38.8608 1.1776 11.264 11.3152 19.4048 22.528 18.2272a20.48 20.48 0 0 0 18.2272-22.528c-1.2288-11.4176-1.8432-23.04-1.8432-34.56V400.7936c1.28 1.6384 2.2528 2.9696 2.9184 3.9936 36.3008 57.6512 101.2736 80.0256 173.7728 59.8528 22.1696-6.1952 45.568-8.96 69.632-8.2432 4.1472 0.1024 7.3728 3.3792 7.3728 7.424v18.0736c0 31.3344 24.7808 57.5488 55.1936 58.4704 15.616 0.512 30.2592-5.2224 41.3696-16.0256C464.896 513.536 471.04 498.9952 471.04 483.4816c0-0.8192 0.3072-1.4848 0.8704-1.9968 0.5632-0.512 1.28-0.768 1.9968-0.7168 1.9968 0.1536 3.9936 0.3072 5.9904 0.4096 1.5872 0.1024 2.7648 1.28 2.7648 2.7136v62.1568c0 31.3344 24.7808 57.5488 55.1936 58.4704h1.792c14.8992 0 28.928-5.6832 39.6288-16.0768 11.1616-10.8032 17.3056-25.344 17.3056-40.8576 0-11.3152-9.1648-20.48-20.48-20.48s-20.48 9.1648-20.48 20.48a15.872 15.872 0 0 1-4.864 11.4688c-3.1232 3.0208-7.2704 4.6592-11.6224 4.5056-8.3968-0.256-15.4624-8.2944-15.4624-17.5104V483.8912c0-23.04-18.1248-42.1888-41.216-43.6224-1.7408-0.1024-3.4816-0.2048-5.2224-0.3584a43.8272 43.8272 0 0 0-33.0752 11.4176 43.82208 43.82208 0 0 0-14.0288 32.1024 15.872 15.872 0 0 1-4.864 11.4688c-3.1232 3.0208-7.2704 4.7104-11.6224 4.5056-8.3968-0.256-15.4624-8.2944-15.4624-17.5104v-18.0736c0-26.3168-20.6848-47.5648-47.104-48.3328-28.1088-0.8704-55.7056 2.4064-81.8688 9.728-50.8928 14.1824-94.7712 1.9968-122.0096-33.4336h511.4368c-12.3392 8.704-27.4432 18.688-47.5136 30.1568-3.072 1.792-8.96 4.5056-19.6608 7.5776-21.0432 6.0416-35.7376 25.3952-35.7376 47.104v10.1888c0 11.3152 9.1648 20.48 20.48 20.48s20.48-9.1648 20.48-20.48V476.672c0-3.584 2.4576-6.7072 6.0928-7.7312 11.7248-3.3792 21.4016-7.2192 28.7232-11.4176 32.1536-18.4832 52.992-33.6896 68.2496-44.8512 20.992-15.36 28.3136-20.3264 40.8064-20.8896h1.3312c3.2768 0 5.9392 2.6624 5.9392 5.9392v133.0176c0 4.9152-0.1536 9.8304-0.3584 14.6944l-0.1536 3.1232c-0.256 4.608-0.6144 9.216-1.0752 13.7728-0.1024 1.1776-0.256 2.304-0.3584 3.4816-0.4608 4.096-0.9728 8.192-1.536 12.2368l-0.3072 2.2016c-0.7168 4.5568-1.536 9.0624-2.4064 13.5168-0.2048 1.1264-0.4608 2.2016-0.6656 3.328-30.6688 145.8688-160.3584 255.7952-315.2384 255.7952-119.2448 0-228.2496-65.4336-284.416-170.7008a20.51584 20.51584 0 0 0-27.6992-8.448 20.46976 20.46976 0 0 0-8.448 27.6992c41.472 77.7728 108.4928 136.192 187.5968 167.2704H192.6656c-11.3152 0-20.48 9.1648-20.48 20.48s9.1648 20.48 20.48 20.48h459.1104c11.3152 0 20.48-9.1648 20.48-20.48s-9.1648-20.48-20.48-20.48H558.08c107.776-42.3936 190.5664-134.8096 219.4944-248.6272 0.0512-0.1024 0.1024-0.2048 0.1024-0.3072 1.1776-4.6592 2.2528-9.3696 3.2256-14.08 0.256-1.3312 0.5632-2.6624 0.8192-3.9936 0.9728-5.0176 1.8944-10.0352 2.7136-15.0528 0.1536-0.9216 0.256-1.8432 0.3584-2.7648 0.6656-4.5056 1.2288-9.0112 1.7408-13.5168l0.4608-4.0448c0.512-5.12 0.8704-10.2912 1.1776-15.4624l0.1536-3.5328c0.256-5.5296 0.4096-11.0592 0.4096-16.5888V448.1024c14.3872-8.3456 30.6176-12.7488 47.5136-12.7488 52.3264 0 94.8736 42.5472 94.8736 94.8736s-42.5472 94.8736-94.8736 94.8736c-6.656 0-13.312-0.6656-19.7632-2.048-11.0592-2.3552-21.9648 4.7104-24.2688 15.7696s4.7104 21.9648 15.7696 24.2688c9.216 1.9456 18.7392 2.9696 28.2624 2.9696 74.9056 0 135.8336-60.928 135.8336-135.8336s-60.928-135.8336-135.8336-135.8336z" fill="#293E40" p-id="21410"></path></svg>