<?xml version="1.0" standalone="no"?><!DOCTYPE svg PUBLIC "-//W3C//DTD SVG 1.1//EN" "http://www.w3.org/Graphics/SVG/1.1/DTD/svg11.dtd"><svg t="1668155365502" class="icon" viewBox="0 0 1024 1024" version="1.1" xmlns="http://www.w3.org/2000/svg" p-id="21178" xmlns:xlink="http://www.w3.org/1999/xlink" width="200" height="200"><path d="M539.4944 131.4304c-220.6208 0-399.4624 178.8416-399.4624 399.4624 0 148.0704 80.64 277.248 200.3456 346.2144v12.5952c0 20.1216 16.3328 36.4544 36.4544 36.4544 13.4144 0 25.088-7.2704 31.4368-18.0224a399.07328 399.07328 0 0 0 131.2256 22.1696c220.6208 0 399.4624-178.8416 399.4624-399.4624s-178.8416-399.4112-399.4624-399.4112z m-41.5744 459.1104c-49.664 0-89.9072-40.2432-89.9072-89.9072s40.2432-89.9072 89.9072-89.9072 89.9072 40.2432 89.9072 89.9072-40.2432 89.9072-89.9072 89.9072z" fill="#FFC31A" p-id="21179"></path><path d="M327.0144 852.5824c-17.7152-6.144-34.9184-13.5168-51.4048-21.9648a400.3328 400.3328 0 0 0 51.4048 38.3488v-16.384zM753.1008 193.4336c68.4032 72.3968 110.4384 169.984 110.4384 277.4528 0 223.1808-180.8896 404.0704-404.0704 404.0704-23.8592 0-47.2064-2.0992-69.9392-6.0928v32.256a397.6192 397.6192 0 0 0 149.9136 29.2352c220.6208 0 399.4624-178.8416 399.4624-399.4624 0.0512-142.0288-74.1376-266.6496-185.8048-337.4592z" fill="#F48806" p-id="21180"></path><path d="M340.3776 652.9536c-10.9568 4.864-22.4256 10.5472-34.6624 16.9472-60.1088 31.4368-121.8048-9.1648-151.7568-34.5088 27.8528 103.1168 96 189.5936 186.4192 241.7664v-224.2048zM755.7632 641.9968c-12.6464 18.1248-24.8832 33.4336-36.7616 46.2848v56.32c0 20.1216-16.3328 36.4544-36.4544 36.4544s-36.4544-16.3328-36.4544-36.4544v-4.1472c-64 21.6576-113.4592-26.624-150.3744-66.048-27.4944-29.3888-53.76-41.472-83.3024-41.0112 0.6144 2.6112 0.9216 5.3248 0.9216 8.0896v248.2176c0 6.7584-1.8944 13.1072-5.12 18.5344a399.32416 399.32416 0 0 0 131.2768 22.0672c183.6544 0 338.2272-123.9552 384.9216-292.7104-76.6464-70.9632-153.6512-16.896-168.6528 4.4032z" fill="#FFE8D2" p-id="21181"></path><path d="M841.6256 602.2144c-54.528 158.6688-204.9536 272.7424-382.1056 272.7424-20.224 0-40.1408-1.536-59.5456-4.4032v34.6112a397.7216 397.7216 0 0 0 139.5712 25.1904c183.6544 0 338.2272-123.9552 384.9216-292.7104-28.672-26.5216-57.3952-35.584-82.8416-35.4304z" fill="#E8AD80" p-id="21182"></path><path d="M359.936 944.4352c-14.2336 0-27.5968-5.4272-37.8368-15.36a54.04672 54.04672 0 0 1-16.5376-39.0656v-34.048c0-11.3152 9.1648-20.48 20.48-20.48s20.48 9.1648 20.48 20.48v34.048c0 3.6864 1.4336 7.1168 4.096 9.6256 2.6112 2.56 6.0928 3.9424 9.7792 3.7888 7.0656-0.2048 13.0048-7.0144 13.0048-14.848v-7.2704c0-11.3152 9.1648-20.48 20.48-20.48s20.48 9.1648 20.48 20.48v7.2704c0 29.9008-23.6544 54.9376-52.736 55.808-0.5632 0.0512-1.1264 0.0512-1.6896 0.0512zM831.744 331.2128c1.4336 2.7648 1.9968 4.0448 2.8672 5.8368 0.512 1.0752 1.0752 2.304 1.8432 3.9936a20.41344 20.41344 0 0 0 18.5344 11.7248 20.46464 20.46464 0 0 0 18.4832-29.184l-1.6384-3.5328c-1.1264-2.4576-1.8944-4.1472-3.84-7.8336a20.50048 20.50048 0 0 0-27.648-8.6528 20.52608 20.52608 0 0 0-8.6016 27.648z" fill="#293E40" p-id="21183"></path><path d="M913.0496 500.6848c0-33.9456-4.096-67.7376-12.2368-100.4032a20.51072 20.51072 0 0 0-24.832-14.9504c-10.9568 2.7136-17.664 13.824-14.9504 24.832 7.3216 29.44 11.008 59.904 11.008 90.5216 0 24.0128-2.3552 47.4624-6.7072 70.1952-51.3536-20.6848-101.2736-9.728-151.808 33.1264-11.7248 9.9328-18.432 24.6272-18.432 40.2432v93.3376a11.7248 11.7248 0 1 1-23.4496 0v-24.0128a28.0576 28.0576 0 0 0-15.104-24.9344c-9.3184-4.864-20.48-4.1984-29.0816 1.8432-57.1392 39.68-107.1104-4.9152-131.7888-35.072-25.4464-31.0272-48.9984-49.8176-74.1888-59.136a35.55328 35.55328 0 0 0-32.6656 4.1984 35.90144 35.90144 0 0 0-15.4112 29.4912v78.336c0 11.3152 9.1648 20.48 20.48 20.48s20.48-9.1648 20.48-20.48v-70.6048c15.6672 7.7312 31.9488 22.0672 49.6128 43.6224 50.2272 61.3376 111.104 80.6912 166.656 54.4768v1.7408c0 29.0816 23.6544 52.6848 52.6848 52.6848 29.0816 0 52.6848-23.6544 52.6848-52.6848v-93.3376c0-3.584 1.4336-6.8608 3.9936-9.0112 40.7552-34.56 76.032-42.1888 115.4048-24.1664-34.4064 111.1552-119.296 200.2944-227.7376 240.5376-1.3824 0.512-2.7136 0.9728-4.096 1.4848-3.84 1.3824-7.7824 2.7136-11.6736 3.9424-1.8944 0.6144-3.7376 1.1776-5.632 1.7408-3.6352 1.0752-7.2704 2.0992-10.9056 3.1232-1.8944 0.512-3.84 1.0752-5.7344 1.536-4.864 1.2288-9.7792 2.3552-14.6944 3.3792-1.4336 0.3072-2.9184 0.5632-4.352 0.8704-4.5568 0.9216-9.1648 1.7408-13.824 2.4576l-6.2976 0.9216a379.9808 379.9808 0 0 1-17.5616 2.048c-3.8912 0.3584-7.7824 0.6656-11.6736 0.8704-1.8944 0.1024-3.7888 0.256-5.7344 0.3584-5.8368 0.256-11.6736 0.4608-17.5104 0.4608h-0.0512c-3.6864 0-7.424-0.0512-11.1104-0.1536-1.6896-0.0512-3.328-0.1536-5.0176-0.2048-1.9456-0.1024-3.9424-0.1536-5.888-0.256l-6.7584-0.4608-3.7888-0.3072c-2.7136-0.256-5.4784-0.512-8.192-0.8192-0.6656-0.0512-1.3312-0.1536-1.9456-0.2048-13.6704-1.5872-27.2384-3.8912-40.704-6.9632v-88.576c0-11.3152-9.1648-20.48-20.48-20.48s-20.48 9.1648-20.48 20.48v104.5504c0 9.216 6.144 17.3056 15.0528 19.7632l3.2256 0.8704c0.256 0.0512 0.512 0.1024 0.8192 0.2048s0.6144 0.256 0.9216 0.3584a416.5632 416.5632 0 0 0 104.5504 13.2608c6.6048 0 13.1072-0.2048 19.6608-0.512 2.2016-0.1024 4.352-0.256 6.5536-0.4096 4.3008-0.256 8.6016-0.5632 12.8512-0.9728 2.56-0.256 5.1712-0.512 7.7312-0.8192a450.53952 450.53952 0 0 0 19.5072-2.6624c3.9424-0.6144 7.8848-1.3824 11.8272-2.0992 2.3552-0.4608 4.7104-0.8704 7.0656-1.3312 6.0416-1.28 12.0832-2.6624 18.0224-4.1472 1.28-0.3584 2.56-0.7168 3.8912-1.0752 4.864-1.28 9.728-2.6624 14.5408-4.1472 1.9968-0.6144 3.9424-1.28 5.888-1.8944 4.1984-1.3824 8.448-2.7648 12.5952-4.2496 1.792-0.6656 3.6352-1.3312 5.4272-1.9968 4.5568-1.6896 9.1136-3.5328 13.6192-5.376l3.6864-1.536c115.456-49.2544 205.6192-149.5552 238.848-276.5824 0.0512-0.1536 0.0512-0.3584 0.1024-0.512 8.448-33.5872 13.1072-68.6592 13.1072-104.8064z" fill="#293E40" p-id="21184"></path><path d="M387.5328 500.6848c0 60.8768 49.5104 110.3872 110.3872 110.3872 60.8768 0 110.3872-49.5104 110.3872-110.3872 0-60.8768-49.5104-110.3872-110.3872-110.3872-60.8256 0-110.3872 49.5104-110.3872 110.3872z m179.8144 0c0 38.2976-31.1296 69.4272-69.4272 69.4272s-69.4272-31.1296-69.4272-69.4272 31.1296-69.4272 69.4272-69.4272 69.4272 31.1296 69.4272 69.4272z" fill="#293E40" p-id="21185"></path><path d="M328.2944 620.1344a35.56352 35.56352 0 0 0-35.6864 0.3072c-55.1424 29.4912-107.4176 22.5792-155.5456-20.3264-8.704-31.8464-13.312-65.2288-13.312-99.4304 0-206.336 167.8336-374.1696 374.1696-374.1696 120.0128 0 233.5744 58.2144 303.8208 155.7504a20.48 20.48 0 0 0 28.5696 4.6592 20.48 20.48 0 0 0 4.6592-28.5696c-77.9264-108.1856-203.9296-172.7488-337.0496-172.7488-228.9152 0-415.1296 186.2144-415.1296 415.1296 0 151.2448 80.4352 287.9488 211.2512 361.6256 0.2048 0.1024 0.4096 0.2048 0.6144 0.3584 5.7344 3.2256 11.4688 6.3488 17.408 9.3184l0.768 0.3072c0.256 0.1024 0.4608 0.256 0.7168 0.3584l3.584 1.7408c2.816 1.3824 5.888 2.048 8.96 2.048 3.7888 0 7.5264-1.024 10.8544-3.1232a20.44416 20.44416 0 0 0 9.6256-17.3568v-204.6464a36.0448 36.0448 0 0 0-18.2784-31.232z m-14.848 35.5328z m-7.8848 4.1472v161.8432a376.5504 376.5504 0 0 1-143.5136-156.16c45.568 20.5312 94.208 18.7392 143.5136-5.6832z" fill="#293E40" p-id="21186"></path><path d="M218.2656 505.7024c-0.3584 0-0.768 0-1.1264-0.0512a20.49024 20.49024 0 0 1-19.3536-21.5552c0.5632-10.5472 1.5872-21.0944 3.072-31.2832a20.4032 20.4032 0 0 1 23.1936-17.3568 20.4288 20.4288 0 0 1 17.3568 23.1936 327.2704 327.2704 0 0 0-2.7136 27.6992 20.44928 20.44928 0 0 1-20.4288 19.3536z" fill="#FFFFFF" p-id="21187"></path><path d="M238.08 411.0848c-2.4576 0-5.0176-0.4608-7.4752-1.4336a20.46464 20.46464 0 0 1-11.6224-26.5216C255.1808 290.5088 323.584 254.4128 326.4512 252.928a20.5312 20.5312 0 0 1 27.5968 8.8064c5.1712 10.0352 1.2288 22.3232-8.7552 27.5456-1.0752 0.5632-57.9584 31.5392-88.1664 108.7488a20.41856 20.41856 0 0 1-19.0464 13.056z" fill="#FFFFFF" p-id="21188"></path></svg>